<?xml version="1.0" encoding="UTF-8"?>
<svg width="233px" height="49px" viewBox="0 0 233 49" version="1.1" xmlns="http://www.w3.org/2000/svg" xmlns:xlink="http://www.w3.org/1999/xlink">
    <!-- Generator: Sketch 47.1 (45422) - http://www.bohemiancoding.com/sketch -->
    <title>bitcoin</title>
    <desc>Created with Sketch.</desc>
    <defs></defs>
    <g id="Page-1" stroke="none" stroke-width="1" fill="none" fill-rule="evenodd">
        <g id="bitcoin" transform="translate(-1.000000, -1.000000)" fill-rule="nonzero">
            <path d="M48.90856,31.37629 C45.66756,44.37529 32.50056,52.28729 19.49756,49.04629 C6.50056,45.80429 -1.41144,32.63629 1.83156,19.63729 C5.07156,6.63529 18.23856,-1.27771 31.23656,1.96429 C44.23856,5.20429 52.14956,18.37429 48.90856,31.37629 L48.90856,31.37629 Z" id="Shape" fill="#F39200"></path>
            <path d="M36.06956,22.04729 C36.55256,18.81829 34.09356,17.08229 30.73156,15.92429 L31.82256,11.55029 L29.15956,10.88729 L28.09756,15.14429 C27.39756,14.97129 26.67856,14.80729 25.96356,14.64429 L27.03256,10.35629 L24.37156,9.69329 L23.28056,14.06629 C22.70156,13.93329 22.13356,13.80329 21.58056,13.66629 L21.58356,13.65229 L17.91256,12.73529 L17.20356,15.57929 C17.20356,15.57929 19.17956,16.03329 19.13756,16.06029 C20.21556,16.32929 20.41056,17.04129 20.37856,17.60829 L19.13556,22.59129 C19.21056,22.61129 19.30656,22.63829 19.41256,22.68029 C19.32356,22.65929 19.22856,22.63429 19.13056,22.61129 L17.38956,29.59129 C17.25756,29.91829 16.92356,30.41029 16.16956,30.22429 C16.19556,30.26229 14.23356,29.74129 14.23356,29.74129 L12.91156,32.79029 L16.37656,33.65429 C17.02156,33.81529 17.65256,33.98329 18.27456,34.14329 L17.17156,38.56829 L19.83156,39.23229 L20.92256,34.85529 C21.64956,35.05129 22.35456,35.23329 23.04456,35.40429 L21.95756,39.76129 L24.62056,40.42629 L25.72256,36.00729 C30.26356,36.86629 33.67656,36.52029 35.11456,32.41429 C36.27256,29.10729 35.05756,27.19929 32.66856,25.95629 C34.40956,25.55629 35.71956,24.41129 36.06956,22.04729 L36.06956,22.04729 Z M29.98556,30.57829 C29.16256,33.88529 23.59556,32.09929 21.79056,31.64829 L23.25256,25.78829 C25.05756,26.23729 30.84556,27.12929 29.98556,30.57829 Z M30.80956,21.99929 C30.05956,25.00729 25.42556,23.47929 23.92256,23.10429 L25.24856,17.78829 C26.75056,18.16329 31.59156,18.86229 30.80956,21.99929 Z" id="Shape" fill="#FFFFFF"></path>
            <path d="M72.21956,15.92029 C74.18756,15.92029 75.88756,16.27329 77.31756,16.96529 C78.75356,17.66429 79.93756,18.60629 80.88756,19.79029 C81.82556,20.98129 82.52156,22.37329 82.97256,23.96729 C83.41956,25.56629 83.64556,27.28529 83.64556,29.12529 C83.64556,31.95429 83.12556,34.62429 82.08156,37.14429 C81.03556,39.66529 79.61656,41.85229 77.81156,43.71829 C76.00756,45.58129 73.87856,47.05029 71.42256,48.13429 C68.97056,49.22029 66.30556,49.76429 63.44356,49.76429 C63.07356,49.76429 62.42256,49.75329 61.50356,49.73429 C60.58456,49.71629 59.52856,49.62129 58.34556,49.46129 C57.15456,49.29429 55.89556,49.04929 54.56656,48.72029 C53.23756,48.39729 51.97556,47.94429 50.78756,47.36929 L61.41356,2.72129 L70.93056,1.24529 L67.12656,17.09029 C67.94056,16.72229 68.76156,16.43829 69.58156,16.23129 C70.39956,16.02629 71.27956,15.92029 72.21956,15.92029 L72.21956,15.92029 Z M64.23756,42.21229 C65.67156,42.21229 67.02156,41.86029 68.28956,41.16829 C69.56256,40.47629 70.66056,39.53929 71.58056,38.37229 C72.49956,37.20229 73.22756,35.88329 73.75956,34.40929 C74.28956,32.93729 74.55856,31.39929 74.55856,29.80029 C74.55856,27.83329 74.22956,26.30329 73.57556,25.19629 C72.92056,24.09229 71.71056,23.53629 69.95056,23.53629 C69.37456,23.53629 68.63156,23.64529 67.71056,23.84229 C66.78756,24.05129 65.96056,24.48429 65.21956,25.13529 L61.16856,41.96229 C61.41256,42.00429 61.62856,42.04529 61.81256,42.08429 C61.99356,42.12529 62.19256,42.15629 62.39156,42.17629 C62.60056,42.19929 62.84156,42.21129 63.13256,42.21129 C63.42356,42.21229 63.78656,42.21229 64.23756,42.21229 L64.23756,42.21229 Z" id="Shape" fill="#55514F"></path>
            <path d="M93.51556,48.90829 L84.42456,48.90829 L92.10156,16.60529 L101.25456,16.60529 L93.51556,48.90829 Z M97.93856,12.66929 C96.66956,12.66929 95.51956,12.29129 94.49756,11.53429 C93.46856,10.78129 92.95856,9.62429 92.95856,8.06329 C92.95856,7.20529 93.13356,6.39929 93.47956,5.63929 C93.83056,4.88129 94.28956,4.22729 94.86456,3.67329 C95.43856,3.12229 96.10356,2.68229 96.85956,2.35129 C97.61956,2.02529 98.42656,1.86229 99.28956,1.86229 C100.55756,1.86229 101.70156,2.24029 102.72656,2.99629 C103.74756,3.75729 104.26056,4.91429 104.26056,6.46829 C104.26056,7.32829 104.08756,8.13729 103.73856,8.89629 C103.39156,9.65529 102.93356,10.30829 102.35856,10.86329 C101.78956,11.41429 101.11756,11.85229 100.36456,12.18129 C99.60256,12.51129 98.79656,12.66929 97.93856,12.66929 L97.93856,12.66929 Z" id="Shape" fill="#55514F"></path>
            <path d="M109.22056,8.55629 L118.74056,7.08129 L116.40456,16.60329 L126.60156,16.60329 L124.76056,24.09529 L114.62456,24.09529 L111.92356,35.39429 C111.67556,36.33629 111.53456,37.21529 111.49556,38.03429 C111.45056,38.85529 111.55456,39.56129 111.79956,40.15529 C112.04456,40.75029 112.48456,41.20829 113.12156,41.53329 C113.75456,41.86229 114.66156,42.03029 115.85256,42.03029 C116.83256,42.03029 117.78956,41.93529 118.71356,41.75129 C119.63056,41.56829 120.56256,41.31629 121.50256,40.98329 L122.18156,47.98829 C120.95256,48.43829 119.62156,48.82729 118.19056,49.15229 C116.75456,49.48329 115.05356,49.64129 113.09056,49.64129 C110.26556,49.64129 108.07656,49.22129 106.51656,48.38829 C104.95956,47.54729 103.85756,46.39729 103.19856,44.94429 C102.55056,43.49429 102.25856,41.82429 102.34056,39.94129 C102.42456,38.05429 102.70956,36.07129 103.19856,33.98229 L109.22056,8.55629 L109.22056,8.55629 Z" id="Shape" fill="#55514F"></path>
            <path d="M126.20156,36.00829 C126.20156,33.22629 126.65056,30.60129 127.55056,28.14429 C128.44956,25.68629 129.74256,23.53729 131.42356,21.69229 C133.09756,19.85629 135.13756,18.40129 137.53756,17.33429 C139.92756,16.27229 142.59956,15.73629 145.54956,15.73629 C147.39356,15.73629 149.04056,15.91129 150.49056,16.26029 C151.94756,16.61329 153.26456,17.06929 154.45456,17.63929 L151.32156,24.76729 C150.50356,24.43529 149.65056,24.14229 148.77356,23.87829 C147.89256,23.60729 146.82056,23.47729 145.54856,23.47729 C142.51456,23.47729 140.11556,24.52229 138.33156,26.60829 C136.55256,28.69329 135.65656,31.50229 135.65656,35.02429 C135.65656,37.11329 136.10656,38.80029 137.01056,40.09129 C137.90856,41.38229 139.57256,42.02729 141.98456,42.02729 C143.17356,42.02729 144.32356,41.90229 145.42256,41.66029 C146.53256,41.41229 147.51056,41.10329 148.37356,40.73929 L149.05156,48.04529 C147.90256,48.49029 146.63456,48.89429 145.24256,49.24629 C143.84956,49.58829 142.18956,49.76429 140.26456,49.76429 C137.72556,49.76429 135.57656,49.39529 133.81756,48.66129 C132.05756,47.91929 130.60456,46.93229 129.45956,45.68229 C128.30856,44.43029 127.48156,42.96529 126.97056,41.28629 C126.45956,39.61029 126.20156,37.84729 126.20156,36.00829 L126.20156,36.00829 Z" id="Shape" fill="#55514F"></path>
            <path d="M166.58256,49.76429 C164.41256,49.76429 162.52656,49.43429 160.92956,48.77929 C159.33456,48.12629 158.01556,47.20729 156.96956,46.01629 C155.92456,44.83229 155.14256,43.42829 154.60656,41.81029 C154.06956,40.19529 153.81256,38.40329 153.81256,36.44129 C153.81256,33.98129 154.20756,31.52129 155.00556,29.06529 C155.79956,26.60929 156.98056,24.39929 158.53956,22.43729 C160.08956,20.46929 161.99956,18.86229 164.24756,17.60829 C166.49456,16.36229 169.08056,15.73729 171.98156,15.73729 C174.11256,15.73729 175.98756,16.06929 177.60856,16.72229 C179.22156,17.37629 180.54956,18.30129 181.59956,19.48629 C182.63856,20.67729 183.42756,22.07529 183.95856,23.69529 C184.49356,25.30929 184.75656,27.10329 184.75656,29.06629 C184.75656,31.52129 184.36756,33.98129 183.59456,36.44229 C182.81956,38.89029 181.67156,41.10529 180.15456,43.07429 C178.64056,45.03629 176.74756,46.64329 174.47356,47.89129 C172.20656,49.13929 169.57256,49.76429 166.58256,49.76429 L166.58256,49.76429 Z M171.12556,23.48029 C169.77656,23.48029 168.58656,23.87129 167.56556,24.64329 C166.54256,25.42529 165.68156,26.40829 164.98956,27.59229 C164.28856,28.78429 163.76956,30.08229 163.41856,31.49329 C163.06956,32.90829 162.89956,34.24529 162.89956,35.51529 C162.89956,37.56429 163.22956,39.16129 163.87956,40.31029 C164.53756,41.45229 165.72256,42.02929 167.44156,42.02929 C168.79556,42.02929 169.97956,41.63829 171.00456,40.85929 C172.02156,40.08329 172.88456,39.09929 173.58156,37.91229 C174.27856,36.72729 174.80256,35.42629 175.15256,34.01129 C175.49656,32.60129 175.67156,31.25829 175.67156,29.99029 C175.67156,27.94429 175.34356,26.34429 174.68856,25.19829 C174.03356,24.05429 172.84556,23.48029 171.12556,23.48029 L171.12556,23.48029 Z" id="Shape" fill="#55514F"></path>
            <path d="M194.66456,48.90829 L185.56556,48.90829 L193.24256,16.60529 L202.39956,16.60529 L194.66456,48.90829 Z M199.08156,12.66929 C197.81256,12.66929 196.66356,12.29129 195.64356,11.53429 C194.62056,10.78129 194.10556,9.62429 194.10556,8.06329 C194.10556,7.20529 194.28256,6.39929 194.62856,5.63929 C194.97556,4.88129 195.43656,4.22729 196.01156,3.67329 C196.58256,3.12229 197.25356,2.68229 198.00756,2.35129 C198.76256,2.02529 199.57056,1.86229 200.42956,1.86229 C201.70056,1.86229 202.84856,2.24029 203.87156,2.99629 C204.89356,3.75729 205.40956,4.91429 205.40956,6.46829 C205.40956,7.32829 205.22756,8.13729 204.88356,8.89629 C204.54056,9.65529 204.07756,10.30829 203.50656,10.86329 C202.92956,11.41429 202.26756,11.85229 201.51256,12.18129 C200.75156,12.51129 199.94556,12.66929 199.08156,12.66929 Z" id="Shape" fill="#55514F"></path>
            <path d="M208.95256,18.07329 C209.64256,17.87129 210.41256,17.62929 211.25156,17.36529 C212.09256,17.10129 213.03256,16.85529 214.08156,16.63429 C215.12056,16.40529 216.29056,16.22029 217.57956,16.07729 C218.86756,15.93129 220.33656,15.85929 221.96856,15.85929 C226.76156,15.85929 230.06656,17.25529 231.89156,20.04029 C233.71456,22.82329 234.03056,26.63129 232.84656,31.46329 L228.66456,48.90529 L219.51356,48.90529 L223.56956,31.83029 C223.81556,30.76329 224.00956,29.73229 224.15256,28.72529 C224.29856,27.72729 224.29056,26.84729 224.11956,26.08529 C223.95856,25.33329 223.57856,24.72029 222.98656,24.24229 C222.38656,23.77329 221.47956,23.53629 220.25356,23.53629 C219.06556,23.53629 217.86056,23.66329 216.62956,23.90929 L210.67156,48.90429 L201.51856,48.90429 L208.95256,18.07329 Z" id="Shape" fill="#55514F"></path>
        </g>
    </g>
</svg>