<?xml version="1.0" encoding="UTF-8"?>
<svg width="225px" height="39px" viewBox="0 0 225 39" version="1.1" xmlns="http://www.w3.org/2000/svg" xmlns:xlink="http://www.w3.org/1999/xlink">
    <!-- Generator: Sketch 50.2 (55047) - http://www.bohemiancoding.com/sketch -->
    <title>paysafecard</title>
    <desc>Created with Sketch.</desc>
    <defs></defs>
    <g id="Page-1" stroke="none" stroke-width="1" fill="none" fill-rule="evenodd">
        <g id="paysafecard" fill-rule="nonzero">
            <path d="M29.529,16.084 C29.561,14.391 29.92,13.089 30.668,12.177 C31.059,11.818 31.547,11.492 32.133,11.233 C32.752,10.972 33.338,10.842 33.924,10.842 L40.892,10.842 C43.953,10.875 45.515,12.535 45.58,15.888 L45.58,26.177 C45.548,27.35 45.092,28.392 44.18,29.238 C43.301,30.149 42.226,30.605 40.989,30.637 L34.412,30.637 L34.412,38.062 L29.528,38.062 L29.528,16.084 L29.529,16.084 Z M40.696,17.062 C40.663,16.28 40.305,15.89 39.589,15.857 L35.779,15.857 C34.867,15.922 34.411,16.411 34.379,17.322 L34.379,24.159 C34.411,25.103 34.9,25.592 35.909,25.624 L39.393,25.624 C39.751,25.624 40.044,25.493 40.305,25.201 C40.566,25.005 40.664,24.745 40.664,24.419 L40.664,17.062 L40.696,17.062 Z" id="Shape" fill="#1988C7"></path>
            <path d="M60.72,16.931 C60.753,16.182 60.297,15.824 59.418,15.856 L49.585,15.856 L49.585,10.842 L60.655,10.842 C63.878,10.907 65.506,12.438 65.571,15.53 L65.571,26.013 C65.538,27.349 65.148,28.423 64.367,29.302 C63.553,30.213 62.478,30.669 61.176,30.669 L54.501,30.669 C51.246,30.636 49.584,29.171 49.552,26.208 L49.552,22.171 C49.585,19.078 51.147,17.515 54.273,17.45 L60.752,17.45 L60.752,16.929 L60.72,16.929 L60.72,16.931 Z M54.371,24.615 C54.371,24.907 54.502,25.136 54.762,25.299 C54.99,25.493 55.283,25.624 55.641,25.624 L59.385,25.624 C60.231,25.624 60.687,25.299 60.687,24.647 L60.687,23.248 C60.687,22.498 60.231,22.108 59.353,22.108 L55.641,22.108 C55.153,22.108 54.827,22.172 54.632,22.336 C54.469,22.531 54.371,22.889 54.371,23.409 L54.371,24.615 Z" id="Shape" fill="#1988C7"></path>
            <path d="M79.245,33.049 C79.636,33.016 79.962,32.885 80.222,32.624 C80.482,32.396 80.613,32.136 80.613,31.811 L80.613,31.355 L80.613,30.638 L74.362,30.638 C73.548,30.638 72.897,30.54 72.409,30.313 C71.888,30.118 71.399,29.759 70.879,29.271 C70.39,28.75 70.032,28.197 69.837,27.611 C69.609,27.09 69.512,26.407 69.512,25.592 L69.512,10.843 L74.396,10.843 L74.396,24.029 C74.396,25.104 74.819,25.625 75.698,25.625 L79.149,25.625 C79.572,25.625 79.931,25.494 80.224,25.202 C80.517,24.973 80.647,24.681 80.647,24.356 L80.647,23.8 L80.647,10.777 L85.498,10.777 L85.498,32.59 C85.465,34.219 85.042,35.489 84.261,36.466 C83.447,37.443 82.34,37.963 80.94,37.963 L69.543,37.963 L69.543,32.95 L79.246,32.95 L79.245,33.049 Z" id="Shape" fill="#1988C7"></path>
            <path d="M89.306,25.624 L97.999,25.624 C98.781,25.592 99.204,25.265 99.236,24.68 L99.236,24.225 C99.236,24.094 99.203,23.963 99.106,23.8 C98.91,23.409 98.682,23.246 98.389,23.246 L97.869,23.246 L94.091,23.246 C92.822,23.215 91.714,22.792 90.803,21.944 C89.891,21.164 89.403,20.187 89.37,19.047 L89.37,15.271 C89.435,12.34 90.998,10.875 94.123,10.81 L104.217,10.81 L104.217,15.825 L95.686,15.825 C94.677,15.825 94.188,16.118 94.188,16.737 L94.188,17.258 C94.188,17.909 94.709,18.202 95.718,18.202 L100.015,18.202 C101.154,18.235 102.131,18.659 102.945,19.537 C103.759,20.384 104.182,21.426 104.215,22.599 L104.215,26.245 C104.182,27.287 103.727,28.296 102.815,29.306 C102.359,29.794 101.904,30.152 101.447,30.348 C100.992,30.542 100.341,30.608 99.526,30.608 L89.336,30.608 L89.336,25.627 L89.306,25.627 L89.306,25.624 Z" id="Shape" fill="#1988C7"></path>
            <path d="M118.869,16.931 C118.902,16.182 118.446,15.824 117.566,15.856 L107.734,15.856 L107.734,10.842 L118.803,10.842 C122.027,10.907 123.655,12.438 123.72,15.53 L123.72,26.013 C123.687,27.349 123.297,28.423 122.515,29.302 C121.702,30.213 120.627,30.669 119.324,30.669 L112.649,30.669 C109.394,30.636 107.734,29.171 107.7,26.208 L107.7,22.171 C107.734,19.078 109.296,17.515 112.422,17.45 L118.902,17.45 L118.902,16.929 L118.869,16.929 L118.869,16.931 Z M112.521,24.615 C112.521,24.907 112.65,25.136 112.912,25.299 C113.14,25.493 113.433,25.624 113.79,25.624 L117.534,25.624 C118.381,25.624 118.804,25.299 118.838,24.647 L118.838,23.248 C118.838,22.498 118.381,22.108 117.501,22.108 L113.79,22.108 C113.302,22.108 112.976,22.172 112.781,22.336 C112.619,22.531 112.522,22.889 112.522,23.409 L112.521,24.615 Z" id="Shape" fill="#1988C7"></path>
            <path d="M127.659,7.978 C127.693,6.611 128.18,5.536 129.157,4.722 C130.101,3.909 131.339,3.486 132.902,3.453 L135.994,3.453 L135.994,8.304 L134.106,8.304 C133.064,8.337 132.544,8.825 132.544,9.769 L132.544,10.844 L135.993,10.844 L135.993,15.858 L132.544,15.858 L132.544,30.64 L127.658,30.64 L127.658,7.978 L127.659,7.978 Z" id="Shape" fill="#1988C7"></path>
            <path d="M143.809,23.899 L143.809,24.224 C143.809,24.615 143.908,24.941 144.135,25.168 C144.297,25.46 144.493,25.623 144.754,25.623 L145.372,25.623 L154.781,25.623 L154.781,30.637 L144.135,30.637 C143.157,30.637 142.408,30.539 141.856,30.377 C141.27,30.182 140.749,29.856 140.293,29.434 C139.772,28.913 139.383,28.359 139.22,27.805 C139.025,27.219 138.927,26.471 138.927,25.493 L138.894,15.466 C138.959,12.438 140.522,10.908 143.648,10.842 L150.225,10.842 C153.252,10.907 154.816,12.503 154.847,15.629 L154.847,19.601 L143.809,23.899 Z M149.865,16.833 L149.865,16.703 C149.865,16.442 149.767,16.214 149.539,16.052 C149.311,15.888 149.018,15.823 148.693,15.823 L145.306,15.823 C144.883,15.823 144.525,15.953 144.232,16.182 C143.907,16.41 143.711,16.703 143.711,17.094 L143.711,19.113 L149.865,16.833 Z" id="Shape" fill="#1988C7"></path>
            <path d="M165.135,30.638 C164.386,30.638 163.736,30.573 163.116,30.444 C162.465,30.346 161.846,30.052 161.194,29.533 C160.511,28.947 160.055,28.295 159.795,27.578 C159.534,26.863 159.404,26.081 159.404,25.17 L159.404,15.825 C159.372,15.076 159.469,14.393 159.633,13.806 C159.795,13.221 160.154,12.667 160.674,12.114 C161.261,11.528 161.879,11.137 162.498,10.942 C163.116,10.779 163.8,10.714 164.582,10.714 L172.07,10.714 L172.07,11.886 L164.776,11.886 C163.474,11.886 162.464,12.146 161.748,12.668 C161,13.253 160.608,14.23 160.608,15.663 L160.608,25.006 C160.608,25.658 160.706,26.31 160.901,26.929 C161.096,27.548 161.454,28.069 161.943,28.523 C162.464,28.915 163.018,29.174 163.506,29.272 C164.059,29.403 164.612,29.436 165.231,29.436 L172.199,29.436 L172.199,30.607 L165.135,30.607 L165.135,30.638 Z" id="Shape" fill="#1988C7"></path>
            <path d="M192.451,25.233 C192.451,25.983 192.387,26.633 192.288,27.219 C192.126,27.838 191.8,28.455 191.311,29.043 C190.302,30.116 189.032,30.637 187.501,30.605 L181.674,30.605 C180.176,30.605 178.939,30.149 177.994,29.238 C177.017,28.359 176.529,27.122 176.529,25.526 L176.529,22.498 C176.594,19.112 178.288,17.354 181.608,17.29 L191.31,17.29 L191.31,15.955 C191.31,14.88 190.984,13.904 190.366,13.091 C189.976,12.57 189.488,12.211 188.967,12.016 C188.413,11.886 187.826,11.788 187.143,11.788 L176.562,11.788 L176.562,10.616 L186.589,10.616 C187.501,10.616 188.349,10.681 189.097,10.811 C189.489,10.876 189.846,11.039 190.172,11.267 C190.53,11.462 190.823,11.788 191.148,12.179 C192.06,13.351 192.484,14.686 192.484,16.183 L192.484,25.233 L192.451,25.233 Z M191.279,18.494 L181.479,18.494 C180.306,18.527 179.395,18.885 178.711,19.569 C178.027,20.286 177.701,21.261 177.701,22.499 L177.701,25.494 C177.701,26.081 177.766,26.601 177.896,27.09 C178.027,27.578 178.319,28.034 178.807,28.424 C179.655,29.142 180.598,29.466 181.608,29.466 L187.534,29.466 C190.008,29.434 191.278,28.132 191.278,25.528 L191.278,18.494 L191.279,18.494 Z" id="Shape" fill="#1988C7"></path>
            <path d="M203.392,11.885 C200.689,11.95 199.321,13.415 199.387,16.345 L199.387,30.637 L198.214,30.637 L198.214,16.345 C198.149,12.601 199.941,10.713 203.586,10.713 L204.888,10.713 L204.888,11.885 L203.392,11.885 Z" id="Shape" fill="#1988C7"></path>
            <path d="M224.293,25.104 C224.196,28.881 222.178,30.737 218.303,30.638 L213.973,30.638 C213.061,30.638 212.247,30.573 211.531,30.411 C210.783,30.215 210.067,29.759 209.383,29.044 C208.862,28.393 208.537,27.773 208.406,27.122 C208.243,26.472 208.145,25.722 208.177,24.941 L208.177,16.41 C208.242,12.568 210.163,10.68 213.973,10.713 L223.122,10.713 L223.122,4.234 L224.294,4.234 L224.293,25.104 Z M223.154,11.885 L213.907,11.885 C213.256,11.885 212.637,11.95 212.117,12.113 C211.563,12.243 211.01,12.569 210.489,13.122 C210,13.643 209.707,14.131 209.577,14.62 C209.414,15.141 209.316,15.727 209.349,16.443 L209.349,25.559 C209.349,27.089 209.772,28.099 210.683,28.653 C211.107,28.914 211.596,29.11 212.149,29.239 C212.702,29.37 213.289,29.468 213.939,29.468 L217.976,29.468 C219.475,29.468 220.712,29.109 221.655,28.426 C222.6,27.775 223.089,26.635 223.121,25.006 L223.121,11.886 L223.154,11.885 Z" id="Shape" fill="#1988C7"></path>
            <path d="M2.44,10.094 C2.831,9.931 3.221,9.801 3.58,9.703 C4.296,6.349 7.291,3.81 10.84,3.81 C14.421,3.81 17.384,6.35 18.101,9.703 C19.208,9.898 20.087,10.354 20.804,11.005 C20.836,10.354 20.804,9.735 20.739,9.15 C20.283,4.07 16.018,0.099 10.841,0.099 C5.502,0.099 1.139,4.331 0.911,9.639 C0.878,10.094 0.878,10.583 0.878,11.071 C1.333,10.68 1.854,10.354 2.44,10.094 Z" id="Shape" fill="#DA0F16"></path>
            <path d="M16.636,10.843 L4.752,10.843 C4.166,10.843 3.58,10.973 2.961,11.234 C2.375,11.494 1.886,11.787 1.496,12.178 C0.746,13.057 0.389,14.359 0.356,16.085 L0.356,25.398 C0.388,27.123 0.747,28.393 1.496,29.304 C1.887,29.695 2.375,29.987 2.961,30.248 C3.58,30.507 4.166,30.638 4.752,30.638 L16.669,30.638 C19.73,30.606 21.325,28.913 21.357,25.592 L21.357,15.889 C21.292,12.536 19.729,10.875 16.636,10.843 Z" id="Shape" fill="#DA0F16"></path>
        </g>
    </g>
</svg>