<?xml version="1.0" encoding="UTF-8"?>
<svg width="228px" height="69px" viewBox="0 0 228 69" version="1.1" xmlns="http://www.w3.org/2000/svg" xmlns:xlink="http://www.w3.org/1999/xlink">
    <!-- Generator: Sketch 47.1 (45422) - http://www.bohemiancoding.com/sketch -->
    <title>trustly</title>
    <desc>Created with Sketch.</desc>
    <defs></defs>
    <g id="Page-1" stroke="none" stroke-width="1" fill="none" fill-rule="evenodd">
        <g id="trustly" fill-rule="nonzero">
            <path d="M54.274,21.02 L46.763,21.02 L46.763,16.94 L46.782,16.177 C46.155,6.827 38.066,-0.244 28.716,0.384 C20.241,0.953 13.492,7.701 12.924,16.177 L12.924,21.019 L5.43,21.019 C2.951,21.019 0.473,22.239 1.026,25.118 L6.555,50.055 C6.947,52.221 8.895,53.752 11.092,53.62 L48.612,53.62 C51.11,53.62 52.654,52.151 53.149,50.055 L58.678,25.118 C59.212,22.24 56.771,21.02 54.274,21.02 Z M37.154,31.506 C37.154,31.83 37.154,32.116 36.506,32.116 L33.093,32.116 C32.712,32.116 32.56,32.173 32.56,32.555 L32.56,44.356 C32.56,44.966 32.198,45.119 31.359,45.119 L28.003,45.119 C27.05,45.119 26.802,45.024 26.802,44.356 L26.802,32.555 C26.802,32.173 26.65,32.116 26.269,32.116 L23.104,32.116 C22.456,32.116 22.456,31.83 22.456,31.506 L22.456,28.589 C22.456,28.017 22.875,27.96 23.543,27.96 L36.087,27.96 C36.735,27.96 37.155,28.037 37.155,28.589 L37.155,31.506 L37.154,31.506 Z M40.757,21.02 L18.947,21.02 L18.947,15.682 C18.591,9.659 23.185,4.488 29.207,4.132 C35.23,3.776 40.401,8.369 40.757,14.392 C40.783,14.822 40.783,15.252 40.757,15.683 L40.757,21.02 L40.757,21.02 Z M25.181,61.647 C25.191,65.353 22.196,68.367 18.49,68.376 C14.783,68.387 11.77,65.391 11.76,61.685 C11.749,57.979 14.745,54.965 18.452,54.956 C22.158,54.945 25.171,57.941 25.181,61.647 L25.181,61.647 L25.181,61.647 Z M47.926,61.647 C47.936,65.353 44.94,68.367 41.234,68.376 C37.528,68.387 34.515,65.391 34.505,61.685 C34.494,57.973 37.494,54.956 41.206,54.946 C44.918,54.935 47.935,57.935 47.946,61.647 L47.926,61.647 Z" id="Shape" fill="#7EBA28"></path>
            <path d="M93.958,29.25 L87.396,29.25 C86.682,29.25 86.354,29.385 86.354,30.099 L86.354,52.777 C86.354,53.955 85.678,54.283 84.077,54.283 L77.592,54.283 C75.797,54.283 75.315,54.09 75.315,52.797 L75.315,30.119 C75.315,29.385 74.987,29.25 74.273,29.25 L68.213,29.25 C66.958,29.25 66.958,28.709 66.958,28.091 L66.958,22.494 C66.958,21.413 67.75,21.278 69.023,21.278 L93.148,21.278 C94.402,21.278 95.213,21.413 95.213,22.494 L95.213,28.091 C95.213,28.709 95.213,29.25 93.958,29.25 M113.472,29.964 C113.819,29.964 114.495,29.964 114.495,30.735 L114.495,35.966 C114.495,36.506 114.225,37.008 113.472,37.008 C112.255,37.008 110.287,37.066 109.244,37.472 C107.314,38.243 106.677,39.208 106.677,41.059 L106.677,51.85 C106.677,53.008 106.736,54.282 105.055,54.282 L99.034,54.282 C97.336,54.282 96.835,53.315 96.835,52.159 L96.835,35.31 C96.835,32.493 97.992,30.022 103.627,30.022 L113.471,29.983 M123.99,54.322 C120.883,54.322 117.467,52.875 117.467,47.103 L117.467,32.473 C117.467,31.219 117.969,30.041 119.204,30.041 L125.516,30.041 C126.637,30.041 127.717,30.812 127.717,31.932 L127.717,43.648 C127.717,44.748 128.082,45.906 129.451,45.906 C130.9,45.906 131.363,44.787 131.363,43.744 L131.363,32.473 C131.363,31.314 131.304,30.041 132.986,30.041 L139.007,30.041 C140.706,30.041 141.206,30.986 141.206,32.164 L141.206,47.064 C141.206,53.414 137.327,54.339 135.608,54.339 L123.969,54.339 M155.277,54.9 C150.548,54.9 146.244,53.955 145.24,53.472 C144.797,53.242 144.39,46.833 145.742,47.16 C146.728,47.371 148.387,47.971 152.113,47.971 C154.099,47.971 155.22,47.701 155.22,46.756 C155.22,46.119 154.158,45.674 152.806,45.076 C149.872,43.822 145.337,42.064 145.337,36.739 C145.337,31.277 151.493,29.115 157.419,29.115 C162.148,29.115 163.538,29.616 164.214,29.886 C165.062,30.195 164.175,35.869 162.958,35.831 C162.147,35.791 159.407,35.29 157.921,35.29 C156.376,35.29 155.722,35.56 155.722,36.332 C155.722,36.737 156.572,37.239 157.921,37.876 C160.97,39.266 165.872,41.563 165.872,46.965 C165.872,54.012 159.581,54.918 155.257,54.918 M183.322,36.719 L180.58,36.719 L180.58,46.521 C180.58,47.371 181.256,47.74 182.24,47.74 C182.472,47.74 182.685,47.74 182.916,47.701 C183.592,47.603 184.268,53.82 183.805,54.051 C183.149,54.36 180.58,54.92 178.246,54.92 C172.301,54.92 170.68,51.059 170.642,48.358 C170.601,45.657 170.642,36.605 170.642,36.605 L169.154,36.605 C168.035,36.605 167.802,35.891 167.802,34.751 L167.802,31.818 C167.802,30.563 168.21,30.08 169.482,30.08 L171.142,30.08 L171.142,26.895 C171.142,25.756 172.261,25.177 173.343,25.003 L178.513,24.135 C180.253,23.865 180.253,24.52 180.253,25.775 L180.253,30.042 L183.089,30.042 C184.208,30.042 184.517,31.142 184.517,32.261 L184.517,34.828 C184.518,36.102 184.518,36.719 183.322,36.719 M196.35,54.283 L189.885,54.283 C188.301,54.283 188.147,54.09 188.147,52.699 L188.147,22.031 C188.147,21.355 188.571,20.776 189.499,20.776 L195.907,20.776 C197.837,20.776 197.973,21.355 197.973,22.359 L197.973,52.199 C197.973,53.355 198.01,54.263 196.35,54.263 M214.646,61.482 C214.3,62.349 213.429,63.296 212.523,63.296 L207.486,63.296 C205.865,63.296 205.634,62.755 206.076,61.712 L209.455,53.683 L200.539,31.604 C200.133,30.561 200.539,30.021 201.928,30.021 L209.262,30.021 C210.149,30.021 211.057,30.928 211.385,31.817 L214.61,41.023 L218.276,31.817 C218.661,30.928 219.51,30.021 220.401,30.021 L225.938,30.021 C227.542,30.021 227.772,30.562 227.329,31.604 L214.63,61.481" id="Shape" fill="#13110C"></path>
        </g>
    </g>
</svg>